# This file uses centimeters as units for non-parametric coordinates.

mtllib redCup.mtl
g default
v -0.620452 0.078285 -0.358218
v 0.000000 0.296712 0.000000
v -0.358218 0.078285 -0.620452
v 0.000000 0.078285 -0.716436
v -0.716436 0.078285 0.000000
v -0.663018 0.000000 0.382794
v -0.765587 0.000000 0.000000
v 0.000000 0.000000 0.000000
v 0.000000 0.000000 -0.765587
v 0.382794 0.000000 -0.663018
v -0.620452 0.078285 0.358218
v 0.358218 0.078285 -0.620452
v -0.382794 0.000000 -0.663018
v -0.663018 0.000000 -0.382794
v -0.866025 1.815971 -0.500000
v -0.500000 1.815971 -0.866025
v 0.663018 0.000000 -0.382794
v -0.382794 0.000000 0.663018
v -0.467900 1.797015 -0.810426
v -0.810426 1.797015 -0.467900
v 0.620452 0.078285 -0.358218
v -0.358218 0.078285 0.620452
v -1.000000 1.815971 0.000000
v 0.000000 1.815971 -1.000000
v 0.765587 0.000000 0.000000
v 0.000000 0.000000 0.765587
v -0.935799 1.797015 0.000000
v 0.000000 1.797015 -0.935799
v 0.000000 0.078285 0.716436
v 0.716436 0.078285 0.000000
v 0.663018 0.000000 0.382794
v 0.382794 0.000000 0.663018
v 0.358218 0.078285 0.620452
v 0.620452 0.078285 0.358218
v 0.500000 1.815971 -0.866025
v -0.866025 1.815971 0.500000
v 0.467900 1.797015 -0.810426
v -0.810426 1.797015 0.467900
v -0.866025 2.376583 -0.500000
v -0.500000 2.376583 -0.866025
v -0.467900 2.376583 -0.810426
v -0.810426 2.376583 -0.467900
v -0.500000 1.815971 0.866025
v 0.866025 1.815971 -0.500000
v -1.000000 2.376583 0.000000
v 0.000000 2.376583 -1.000000
v 0.810426 1.797015 -0.467900
v -0.467900 1.797015 0.810426
v -0.935799 2.376583 0.000000
v 0.000000 2.376583 -0.935799
v 0.500000 2.376583 -0.866025
v -0.866025 2.376583 0.500000
v -0.810426 2.376583 0.467900
v 0.467900 2.376583 -0.810426
v 0.000000 1.797015 0.935799
v 0.935799 1.797015 0.000000
v 1.000000 1.815971 0.000000
v 0.000000 1.815971 1.000000
v 0.810426 1.797015 0.467900
v 0.467900 1.797015 0.810426
v 0.866025 1.815971 0.500000
v 0.500000 1.815971 0.866025
v 0.810426 2.376583 -0.467900
v -0.467900 2.376583 0.810426
v 0.866025 2.376583 -0.500000
v -0.500000 2.376583 0.866025
v 0.935799 2.376583 0.000000
v 0.000000 2.376583 0.935799
v 0.000000 2.376583 1.000000
v 1.000000 2.376583 0.000000
v 0.810426 2.376583 0.467900
v 0.467900 2.376583 0.810426
v 0.500000 2.376583 0.866025
v 0.866025 2.376583 0.500000
v 0.000000 2.295519 1.000000
v -0.500000 2.295519 0.866025
v -0.866025 2.295519 0.500000
v -1.000000 2.295519 0.000000
v -0.866025 2.295519 -0.500000
v -0.500000 2.295519 -0.866025
v 0.000000 2.295519 -1.000000
v 0.500000 2.295519 -0.866025
v 0.866025 2.295519 -0.500000
v 1.000000 2.295519 0.000000
v 0.866025 2.295519 0.500000
v 0.500000 2.295519 0.866025
v 0.000000 2.295519 1.066517
v -0.533258 2.295519 0.923631
v 0.000000 2.376583 1.066517
v -0.533258 2.376583 0.923631
v -0.923631 2.295519 0.533259
v -0.923631 2.376583 0.533259
v -1.066517 2.295519 0.000000
v -1.066517 2.376583 0.000000
v -0.923631 2.295519 -0.533259
v -0.923631 2.376583 -0.533259
v -0.533258 2.295519 -0.923631
v -0.533258 2.376583 -0.923631
v 0.000000 2.295519 -1.066517
v 0.000000 2.376583 -1.066517
v 0.533258 2.295519 -0.923631
v 0.533258 2.376583 -0.923631
v 0.923631 2.295519 -0.533259
v 0.923631 2.376583 -0.533259
v 1.066517 2.295519 0.000000
v 1.066517 2.376583 0.000000
v 0.923631 2.295519 0.533259
v 0.923631 2.376583 0.533259
v 0.533258 2.295519 0.923631
v 0.533258 2.376583 0.923631
vt 0.364684 0.078125
vt 0.500000 0.150000
vt 0.421875 0.020934
vt 0.500000 0.000000
vt 0.343750 0.156250
vt 0.364684 0.234375
vt 0.343750 0.156250
vt 0.500000 0.150000
vt 0.500000 0.000000
vt 0.578125 0.020934
vt 0.364684 0.234375
vt 0.578125 0.020934
vt 0.437500 0.312500
vt 0.458333 0.312500
vt 0.458333 0.500470
vt 0.437500 0.500470
vt 0.635316 0.078125
vt 0.421875 0.291566
vt 0.437500 0.312500
vt 0.437500 0.500470
vt 0.458333 0.500470
vt 0.458333 0.312500
vt 0.635316 0.078125
vt 0.421875 0.291566
vt 0.479167 0.312500
vt 0.479167 0.500470
vt 0.416667 0.312500
vt 0.416667 0.500470
vt 0.656250 0.156250
vt 0.500000 0.312500
vt 0.479167 0.500470
vt 0.479167 0.312500
vt 0.416667 0.312500
vt 0.416667 0.500470
vt 0.500000 0.312500
vt 0.656250 0.156250
vt 0.635316 0.234375
vt 0.578125 0.291566
vt 0.578125 0.291566
vt 0.635316 0.234375
vt 0.395833 0.312500
vt 0.395833 0.500470
vt 0.500000 0.312500
vt 0.500000 0.500470
vt 0.395833 0.312500
vt 0.395833 0.500470
vt 0.500000 0.500470
vt 0.500000 0.312500
vt 0.458333 0.688440
vt 0.437500 0.688440
vt 0.437500 0.651003
vt 0.458333 0.651003
vt 0.520833 0.312500
vt 0.520833 0.500470
vt 0.375000 0.312500
vt 0.375000 0.500470
vt 0.479167 0.688440
vt 0.416667 0.688440
vt 0.375000 0.312500
vt 0.375000 0.500470
vt 0.520833 0.500470
vt 0.520833 0.312500
vt 0.479167 0.651003
vt 0.416667 0.651003
vt 0.426891 0.969978
vt 0.421875 0.979066
vt 0.364684 0.921875
vt 0.373371 0.916458
vt 0.343750 0.843750
vt 0.353781 0.843349
vt 0.500000 0.989567
vt 0.500000 1.000000
vt 0.395833 0.688440
vt 0.500000 0.688440
vt 0.500000 0.651003
vt 0.395833 0.651003
vt 0.541667 0.500470
vt 0.541667 0.312500
vt 0.604167 0.312500
vt 0.604167 0.500470
vt 0.625000 0.500470
vt 0.625000 0.312500
vt 0.604167 0.312500
vt 0.625000 0.312500
vt 0.625000 0.500470
vt 0.604167 0.500470
vt 0.541667 0.312500
vt 0.541667 0.500470
vt 0.364684 0.765625
vt 0.373371 0.770239
vt 0.573109 0.969978
vt 0.578125 0.979066
vt 0.583333 0.312500
vt 0.583333 0.500470
vt 0.562500 0.500470
vt 0.562500 0.312500
vt 0.583333 0.312500
vt 0.583333 0.500470
vt 0.562500 0.312500
vt 0.562500 0.500470
vt 0.375000 0.651003
vt 0.520833 0.651003
vt 0.375000 0.688440
vt 0.520833 0.688440
vt 0.421875 0.708434
vt 0.426891 0.716720
vt 0.626629 0.916458
vt 0.635316 0.921875
vt 0.604167 0.651003
vt 0.625000 0.651003
vt 0.541667 0.651003
vt 0.541667 0.688440
vt 0.625000 0.688440
vt 0.604167 0.688440
vt 0.500000 0.687500
vt 0.500000 0.697130
vt 0.646219 0.843349
vt 0.656250 0.843750
vt 0.583333 0.651003
vt 0.562500 0.651003
vt 0.562500 0.688440
vt 0.583333 0.688440
vt 0.578125 0.708434
vt 0.573109 0.716720
vt 0.626629 0.770239
vt 0.635316 0.765625
vt 0.364684 0.078125
vt 0.421875 0.020934
vt 0.541667 0.661260
vt 0.520833 0.661260
vt 0.500000 0.661260
vt 0.479167 0.661260
vt 0.458333 0.661260
vt 0.437500 0.661260
vt 0.416667 0.661260
vt 0.395833 0.661260
vt 0.375000 0.661260
vt 0.625000 0.661260
vt 0.604167 0.661260
vt 0.583333 0.661260
vt 0.562500 0.661260
vt 0.520833 0.661260
vt 0.541667 0.661260
vt 0.541667 0.688440
vt 0.520833 0.688440
vt 0.500000 0.661260
vt 0.500000 0.688440
vt 0.479167 0.661260
vt 0.479167 0.688440
vt 0.458333 0.661260
vt 0.458333 0.688440
vt 0.437500 0.661260
vt 0.437500 0.688440
vt 0.416667 0.661260
vt 0.416667 0.688440
vt 0.395833 0.661260
vt 0.395833 0.688440
vt 0.375000 0.661260
vt 0.375000 0.688440
vt 0.604167 0.661260
vt 0.625000 0.661260
vt 0.625000 0.688440
vt 0.604167 0.688440
vt 0.583333 0.661260
vt 0.583333 0.688440
vt 0.562500 0.661260
vt 0.562500 0.688440
vn -0.252557 0.956532 -0.145814
vn 0.000000 1.000000 0.000000
vn -0.145814 0.956532 -0.252557
vn 0.000000 0.956532 -0.291627
vn -0.291627 0.956532 0.000000
vn 0.000000 -1.000000 0.000000
vn 0.000000 -1.000000 0.000000
vn 0.000000 -1.000000 0.000000
vn 0.000000 -1.000000 0.000000
vn 0.000000 -1.000000 0.000000
vn -0.252557 0.956532 0.145814
vn 0.145814 0.956532 -0.252557
vn -0.701674 -0.123727 -0.701674
vn -0.701674 -0.123727 -0.701674
vn -0.703904 -0.095069 -0.703904
vn -0.703904 -0.095069 -0.703904
vn 0.000000 -1.000000 0.000000
vn 0.000000 -1.000000 0.000000
vn 0.701794 0.122356 0.701794
vn 0.704342 0.088338 0.704342
vn 0.704342 0.088338 0.704342
vn 0.701794 0.122356 0.701794
vn 0.252557 0.956532 -0.145814
vn -0.145814 0.956532 0.252557
vn -0.958504 -0.123727 -0.256830
vn -0.958504 -0.123727 -0.256830
vn -0.961551 -0.095069 -0.257647
vn -0.961551 -0.095069 -0.257647
vn -0.256830 -0.123727 -0.958504
vn -0.256830 -0.123727 -0.958504
vn -0.257647 -0.095069 -0.961551
vn -0.257647 -0.095069 -0.961551
vn 0.000000 -1.000000 0.000000
vn 0.000000 -1.000000 0.000000
vn 0.958668 0.122356 0.256874
vn 0.962150 0.088338 0.257807
vn 0.962150 0.088338 0.257807
vn 0.958668 0.122356 0.256874
vn 0.256874 0.122356 0.958668
vn 0.257807 0.088338 0.962150
vn 0.257807 0.088338 0.962150
vn 0.256874 0.122356 0.958668
vn 0.000000 0.956532 0.291627
vn 0.291627 0.956532 0.000000
vn 0.000000 -1.000000 0.000000
vn 0.000000 -1.000000 0.000000
vn 0.145814 0.956532 0.252557
vn 0.252557 0.956532 0.145814
vn 0.256830 -0.123727 -0.958504
vn 0.256830 -0.123727 -0.958504
vn 0.257647 -0.095069 -0.961551
vn 0.257647 -0.095069 -0.961551
vn -0.958504 -0.123727 0.256830
vn -0.958504 -0.123728 0.256830
vn -0.961551 -0.095069 0.257647
vn -0.961551 -0.095069 0.257647
vn -0.256874 0.122356 0.958668
vn -0.257807 0.088338 0.962150
vn -0.257807 0.088338 0.962150
vn -0.256874 0.122356 0.958668
vn 0.958668 0.122356 -0.256874
vn 0.962150 0.088338 -0.257807
vn 0.962150 0.088338 -0.257807
vn 0.958668 0.122356 -0.256874
vn -0.707107 0.000000 -0.707107
vn -0.707107 0.000000 -0.707107
vn 0.707107 0.000000 0.707107
vn 0.707107 0.000000 0.707107
vn -0.701674 -0.123727 0.701674
vn -0.701674 -0.123727 0.701674
vn -0.703904 -0.095069 0.703904
vn -0.703904 -0.095069 0.703904
vn 0.701674 -0.123727 -0.701674
vn 0.701674 -0.123727 -0.701674
vn 0.703904 -0.095069 -0.703904
vn 0.703904 -0.095069 -0.703904
vn -0.965926 0.000000 -0.258819
vn -0.965926 0.000000 -0.258819
vn -0.258819 0.000000 -0.965926
vn -0.258819 0.000000 -0.965926
vn -0.701794 0.122356 0.701794
vn -0.704342 0.088338 0.704342
vn -0.704342 0.088338 0.704342
vn -0.701794 0.122356 0.701794
vn 0.701794 0.122356 -0.701794
vn 0.704342 0.088338 -0.704342
vn 0.704342 0.088338 -0.704342
vn 0.701794 0.122356 -0.701794
vn 0.965926 0.000000 0.258819
vn 0.965926 0.000000 0.258819
vn 0.258819 0.000000 0.965926
vn 0.258819 0.000000 0.965926
vn 0.000000 1.000000 0.000002
vn 0.000000 1.000000 0.000000
vn 0.000000 1.000000 0.000000
vn 0.000000 1.000000 0.000002
vn 0.000000 1.000000 -0.000000
vn 0.000000 1.000000 -0.000000
vn 0.000000 1.000000 0.000000
vn 0.000000 1.000000 0.000000
vn 0.258819 0.000000 -0.965926
vn 0.258819 0.000000 -0.965926
vn -0.965926 0.000000 0.258819
vn -0.965926 0.000000 0.258819
vn 0.965926 0.000000 -0.258819
vn 0.965926 0.000000 -0.258819
vn -0.258819 0.000000 0.965926
vn -0.258819 0.000000 0.965926
vn 0.256874 0.122356 -0.958668
vn 0.257807 0.088338 -0.962150
vn 0.257807 0.088338 -0.962150
vn 0.256874 0.122356 -0.958668
vn -0.958668 0.122356 0.256874
vn -0.962150 0.088338 0.257807
vn -0.962150 0.088338 0.257807
vn -0.958668 0.122356 0.256874
vn 0.958504 -0.123727 -0.256830
vn 0.958504 -0.123728 -0.256830
vn 0.961551 -0.095069 -0.257647
vn 0.961551 -0.095069 -0.257647
vn -0.256830 -0.123727 0.958504
vn -0.256830 -0.123727 0.958504
vn -0.257647 -0.095069 0.961551
vn -0.257647 -0.095069 0.961551
vn 0.000000 1.000000 0.000000
vn 0.000000 1.000000 -0.000000
vn 0.000000 1.000000 0.000000
vn 0.000000 1.000000 0.000000
vn -0.958668 0.122356 -0.256874
vn -0.962150 0.088338 -0.257807
vn -0.962150 0.088338 -0.257807
vn -0.958668 0.122356 -0.256874
vn -0.256874 0.122356 -0.958668
vn -0.257807 0.088338 -0.962150
vn -0.257807 0.088338 -0.962150
vn -0.256874 0.122356 -0.958668
vn 0.958504 -0.123727 0.256830
vn 0.958504 -0.123727 0.256830
vn 0.961551 -0.095069 0.257647
vn 0.961551 -0.095069 0.257647
vn 0.256830 -0.123727 0.958504
vn 0.256830 -0.123727 0.958504
vn 0.257647 -0.095069 0.961551
vn 0.257647 -0.095069 0.961551
vn -0.701794 0.122356 -0.701794
vn -0.704342 0.088338 -0.704342
vn -0.704342 0.088338 -0.704342
vn -0.701794 0.122356 -0.701794
vn -0.707107 0.000000 0.707107
vn -0.707107 0.000000 0.707107
vn 0.707107 0.000000 -0.707107
vn 0.707107 0.000000 -0.707107
vn 0.707107 0.000000 -0.707107
vn 0.707107 0.000000 -0.707107
vn -0.707107 0.000000 0.707107
vn -0.707107 0.000000 0.707107
vn 0.701674 -0.123727 0.701674
vn 0.701674 -0.123727 0.701674
vn 0.703904 -0.095069 0.703904
vn 0.703904 -0.095069 0.703904
vn 0.000000 1.000000 0.000000
vn 0.000000 1.000000 0.000000
vn 0.000000 1.000000 0.000000
vn 0.000000 1.000000 -0.000000
vn -0.965926 0.000000 0.258819
vn -0.965926 0.000000 0.258819
vn 0.258819 0.000000 -0.965926
vn 0.258819 0.000000 -0.965926
vn -0.258819 0.000000 0.965926
vn -0.258819 0.000000 0.965926
vn 0.965926 0.000000 -0.258819
vn 0.965926 0.000000 -0.258819
vn 0.000000 1.000000 0.000000
vn 0.000000 1.000000 0.000000
vn 0.000000 1.000000 0.000000
vn 0.000000 1.000000 0.000000
vn -0.965926 0.000000 -0.258819
vn -0.965926 0.000000 -0.258819
vn -0.258819 0.000000 -0.965926
vn -0.258819 0.000000 -0.965926
vn 0.258819 0.000000 0.965926
vn 0.258819 0.000000 0.965926
vn 0.965926 0.000000 0.258819
vn 0.965926 0.000000 0.258819
vn -0.707107 0.000000 -0.707107
vn -0.707107 0.000000 -0.707107
vn 0.707107 0.000000 0.707107
vn 0.707107 0.000000 0.707107
vn 0.000000 1.000000 -0.000000
vn 0.000000 1.000000 -0.000002
vn 0.000000 1.000000 -0.000002
vn 0.000000 1.000000 -0.000000
vn 0.000000 -1.000000 0.000000
vn 0.000000 -1.000000 0.000000
vn -0.258819 0.000000 0.965926
vn -0.258819 0.000000 0.965926
vn -0.258819 0.000000 0.965926
vn -0.258819 0.000000 0.965926
vn -0.707106 0.000000 0.707108
vn -0.707106 0.000000 0.707108
vn -0.707106 0.000000 0.707108
vn -0.707106 0.000000 0.707108
vn -0.965926 0.000000 0.258819
vn -0.965926 0.000000 0.258819
vn -0.965926 0.000000 0.258819
vn -0.965926 0.000000 0.258819
vn -0.965926 0.000000 -0.258819
vn -0.965926 0.000000 -0.258819
vn -0.965926 0.000000 -0.258819
vn -0.965926 0.000000 -0.258819
vn -0.707106 0.000000 -0.707108
vn -0.707106 0.000000 -0.707108
vn -0.707106 0.000000 -0.707108
vn -0.707106 0.000000 -0.707108
vn -0.258819 0.000000 -0.965926
vn -0.258819 0.000000 -0.965926
vn -0.258819 0.000000 -0.965926
vn -0.258819 0.000000 -0.965926
vn 0.258819 0.000000 -0.965926
vn 0.258819 0.000000 -0.965926
vn 0.258819 0.000000 -0.965926
vn 0.258819 0.000000 -0.965926
vn 0.707106 0.000000 -0.707108
vn 0.707106 0.000000 -0.707108
vn 0.707106 0.000000 -0.707108
vn 0.707106 0.000000 -0.707108
vn 0.965926 0.000000 -0.258819
vn 0.965926 0.000000 -0.258819
vn 0.965926 0.000000 -0.258819
vn 0.965926 0.000000 -0.258819
vn 0.965926 0.000000 0.258819
vn 0.965926 0.000000 0.258819
vn 0.965926 0.000000 0.258819
vn 0.965926 0.000000 0.258819
vn 0.707106 0.000000 0.707108
vn 0.707106 0.000000 0.707108
vn 0.707106 0.000000 0.707108
vn 0.707106 0.000000 0.707108
vn 0.258819 0.000000 0.965926
vn 0.258819 0.000000 0.965926
vn 0.258819 0.000000 0.965926
vn 0.258819 0.000000 0.965926
vn 0.000000 -1.000000 0.000001
vn 0.000000 -1.000000 0.000000
vn 0.000000 -1.000000 0.000000
vn 0.000000 -1.000000 0.000001
vn 0.000000 1.000000 0.000000
vn 0.000000 1.000000 0.000000
vn 0.000000 -1.000000 0.000000
vn 0.000000 -1.000000 0.000000
vn 0.000000 1.000000 0.000000
vn 0.000000 -1.000000 0.000000
vn 0.000000 -1.000000 0.000000
vn 0.000000 1.000000 0.000000
vn 0.000000 -1.000000 0.000000
vn 0.000000 -1.000000 0.000000
vn 0.000000 1.000000 -0.000001
vn 0.000000 -1.000000 0.000000
vn 0.000000 -1.000000 0.000000
vn 0.000000 1.000000 -0.000000
vn 0.000000 -1.000000 -0.000000
vn 0.000000 -1.000000 -0.000000
vn 0.000000 1.000000 0.000000
vn 0.000000 -1.000000 -0.000001
vn 0.000000 -1.000000 -0.000001
vn 0.000000 1.000000 0.000000
vn 0.000000 -1.000000 -0.000000
vn 0.000000 -1.000000 -0.000000
vn 0.000000 1.000000 -0.000000
vn 0.000000 -1.000000 0.000000
vn 0.000000 -1.000000 0.000000
vn 0.000000 1.000000 0.000000
vn 0.000000 -1.000000 -0.000000
vn 0.000000 -1.000000 -0.000000
vn 0.000000 1.000000 0.000001
vn 0.000000 -1.000000 -0.000000
vn 0.000000 -1.000000 -0.000000
vn 0.000000 1.000000 0.000000
s 1
g pCylinder3
usemtl initialShadingGroup
f 1/1/1 2/2/2 3/3/3
f 3/3/3 2/2/2 4/4/4
f 5/5/5 2/2/2 1/1/1
s 2
f 6/6/6 7/7/7 8/8/8
f 9/9/9 10/10/10 8/8/8
s 1
f 11/11/11 2/2/2 5/5/5
f 4/4/4 2/2/2 12/12/12
s 4
f 13/13/13 14/14/14 15/15/15 16/16/16
s 2
f 10/10/10 17/17/17 8/8/8
f 18/18/18 6/6/6 8/8/8
s 5
f 3/19/19 19/20/20 20/21/21 1/22/22
s 1
f 12/12/12 2/2/2 21/23/23
f 22/24/24 2/2/2 11/11/11
s 6
f 14/14/25 7/25/26 23/26/27 15/15/28
s 7
f 9/27/29 13/13/30 16/16/31 24/28/32
s 2
f 17/17/17 25/29/33 8/8/8
f 26/30/34 18/18/18 8/8/8
s 8
f 1/22/35 20/21/36 27/31/37 5/32/38
s 9
f 4/33/39 28/34/40 19/20/41 3/19/42
s 1
f 29/35/43 2/2/2 22/24/24
f 21/23/23 2/2/2 30/36/44
s 2
f 25/29/33 31/37/45 8/8/8
f 32/38/46 26/30/34 8/8/8
f 31/37/45 32/38/46 8/8/8
s 1
f 33/39/47 2/2/2 29/35/43
f 30/36/44 2/2/2 34/40/48
f 34/40/48 2/2/2 33/39/47
s 10
f 10/41/49 9/27/50 24/28/51 35/42/52
s 11
f 7/25/53 6/43/54 36/44/55 23/26/56
s 12
f 12/45/57 37/46/58 28/34/59 4/33/60
s 13
f 5/32/61 27/31/62 38/47/63 11/48/64
s 4
f 16/16/16 15/15/15 79/133/65 80/134/66
s 5
f 41/51/67 42/52/68 20/21/21 19/20/20
s 14
f 6/43/69 18/53/70 43/54/71 36/44/72
s 15
f 17/55/73 10/41/74 35/42/75 44/56/76
s 6
f 15/15/28 23/26/27 78/132/77 79/133/78
s 7
f 24/28/32 16/16/31 80/134/79 81/135/80
s 16
f 21/59/81 47/60/82 37/46/83 12/45/84
s 17
f 11/48/85 38/47/86 48/61/87 22/62/88
s 8
f 42/52/89 49/63/90 27/31/37 20/21/36
s 9
f 50/64/91 41/51/92 19/20/41 28/34/40
s 18
f 41/65/93 40/66/94 39/67/95 42/68/96
f 42/68/96 39/67/95 45/69/97 49/70/98
f 50/71/99 46/72/100 40/66/94 41/65/93
s 10
f 35/42/52 24/28/51 81/135/101 82/136/102
s 11
f 23/26/56 36/44/55 77/131/103 78/132/104
s 13
f 49/63/105 53/75/106 38/47/63 27/31/62
s 12
f 54/76/107 50/64/108 28/34/59 37/46/58
s 19
f 22/62/109 48/61/110 55/77/111 29/78/112
s 20
f 30/79/113 56/80/114 47/81/115 21/82/116
s 21
f 25/83/117 17/84/118 44/85/119 57/86/120
s 22
f 18/53/121 26/87/122 58/88/123 43/54/124
s 18
f 49/70/98 45/69/97 52/89/125 53/90/126
f 54/91/127 51/92/128 46/72/100 50/71/99
s 23
f 34/93/129 59/94/130 56/80/131 30/79/132
s 24
f 29/78/133 55/77/134 60/95/135 33/96/136
s 25
f 31/97/137 25/83/138 57/86/139 61/98/140
s 26
f 26/87/141 32/99/142 62/100/143 58/88/144
s 27
f 33/96/145 60/95/146 59/94/147 34/93/148
s 16
f 63/101/149 54/76/150 37/46/83 47/60/82
s 17
f 53/75/151 64/102/152 48/61/87 38/47/86
s 15
f 44/56/76 35/42/75 82/136/153 83/137/154
s 14
f 36/44/72 43/54/71 76/130/155 77/131/156
s 28
f 32/99/157 31/97/158 61/98/159 62/100/160
s 18
f 53/90/126 52/89/125 66/105/161 64/106/162
f 63/107/163 65/108/164 51/92/128 54/91/127
s 20
f 67/109/165 63/110/166 47/81/115 56/80/114
s 19
f 64/102/167 68/111/168 55/77/111 48/61/110
s 22
f 43/54/124 58/88/123 75/129/169 76/130/170
s 21
f 57/86/120 44/85/119 83/138/171 84/139/172
s 18
f 64/106/162 66/105/161 69/115/173 68/116/174
f 67/117/175 70/118/176 65/108/164 63/107/163
s 23
f 71/119/177 67/109/178 56/80/131 59/94/130
s 24
f 68/111/179 72/120/180 60/95/135 55/77/134
s 26
f 58/88/144 62/100/143 86/141/181 75/129/182
s 25
f 61/98/140 57/86/139 84/139/183 85/140/184
s 27
f 72/120/185 71/119/186 59/94/147 60/95/146
s 28
f 62/100/160 61/98/159 85/140/187 86/141/188
s 18
f 68/116/174 69/115/173 73/123/189 72/124/190
f 71/125/191 74/126/192 70/118/176 67/117/175
f 72/124/190 73/123/189 74/126/192 71/125/191
s 2
f 7/7/7 14/127/193 8/8/8
f 13/128/194 9/9/9 8/8/8
f 14/127/193 13/128/194 8/8/8
s off
f 88/142/195 87/143/196 89/144/197 90/145/198
f 91/146/199 88/142/200 90/145/201 92/147/202
f 93/148/203 91/146/204 92/147/205 94/149/206
f 95/150/207 93/148/208 94/149/209 96/151/210
f 97/152/211 95/150/212 96/151/213 98/153/214
f 99/154/215 97/152/216 98/153/217 100/155/218
f 101/156/219 99/154/220 100/155/221 102/157/222
f 103/158/223 101/156/224 102/157/225 104/159/226
f 105/160/227 103/161/228 104/162/229 106/163/230
f 107/164/231 105/160/232 106/163/233 108/165/234
f 109/166/235 107/164/236 108/165/237 110/167/238
f 87/143/239 109/166/240 110/167/241 89/144/242
s 29
f 76/130/243 75/129/244 87/143/245 88/142/246
s 18
f 69/112/173 66/104/161 90/145/247 89/144/248
s 29
f 77/131/249 76/130/243 88/142/246 91/146/250
s 18
f 66/104/161 52/74/125 92/147/251 90/145/247
s 29
f 78/132/252 77/131/249 91/146/250 93/148/253
s 18
f 52/74/125 45/57/97 94/149/254 92/147/251
s 29
f 79/133/255 78/132/252 93/148/253 95/150/256
s 18
f 45/57/97 39/49/95 96/151/257 94/149/254
s 29
f 80/134/258 79/133/255 95/150/256 97/152/259
s 18
f 39/49/95 40/50/94 98/153/260 96/151/257
s 29
f 81/135/261 80/134/258 97/152/259 99/154/262
s 18
f 40/50/94 46/58/100 100/155/263 98/153/260
s 29
f 82/136/264 81/135/261 99/154/262 101/156/265
s 18
f 46/58/100 51/73/128 102/157/266 100/155/263
s 29
f 83/137/267 82/136/264 101/156/265 103/158/268
s 18
f 51/73/128 65/103/164 104/159/269 102/157/266
s 29
f 84/139/270 83/138/267 103/161/268 105/160/271
s 18
f 65/113/164 70/114/176 106/163/272 104/162/269
s 29
f 85/140/273 84/139/270 105/160/271 107/164/274
s 18
f 70/114/176 74/122/192 108/165/275 106/163/272
s 29
f 86/141/276 85/140/273 107/164/274 109/166/277
s 18
f 74/122/192 73/121/189 110/167/278 108/165/275
s 29
f 75/129/244 86/141/276 109/166/277 87/143/245
s 18
f 73/121/189 69/112/173 89/144/248 110/167/278
